<?xml version="1.0" encoding="UTF-8"?>
<svg xmlns="http://www.w3.org/2000/svg" xmlns:xlink="http://www.w3.org/1999/xlink" width="297px" height="297px" viewBox="0 0 297 297" version="1.1">
<g id="surface1">
<path style=" stroke:none;fill-rule:nonzero;fill:rgb(34.901961%,48.235294%,56.862745%);fill-opacity:1;" d="M 149.175781 94.691406 C 145.917969 94.691406 143.277344 92.046875 143.277344 88.789062 C 143.277344 67.617188 155.347656 57 166.003906 47.628906 C 175.089844 39.636719 182.941406 32.730469 182.941406 19.9375 C 182.941406 16.675781 185.582031 14.035156 188.84375 14.035156 C 192.101562 14.035156 194.742188 16.675781 194.742188 19.9375 C 194.742188 38.066406 183.613281 47.855469 173.796875 56.492188 C 163.753906 65.324219 155.078125 72.957031 155.078125 88.789062 C 155.078125 92.050781 152.4375 94.691406 149.175781 94.691406 Z M 149.175781 94.691406 "/>
<path style=" stroke:none;fill-rule:nonzero;fill:rgb(16.862745%,23.137255%,27.843137%);fill-opacity:1;" d="M 282.515625 125.066406 C 281.914062 123.628906 281.324219 122.210938 280.738281 120.820312 C 274.753906 98.921875 254.71875 82.824219 230.921875 82.824219 L 66.425781 82.824219 C 43.785156 82.824219 24.546875 97.398438 17.578125 117.675781 C 16.535156 120.058594 15.515625 122.527344 14.453125 125.066406 C -2.164062 164.644531 0.976562 199.503906 0.976562 247.117188 C 0.976562 277.285156 37.980469 284.507812 53.367188 260.894531 C 57.6875 254.265625 73.535156 232.277344 89.109375 208.339844 C 93.925781 210.914062 99.300781 212.261719 104.761719 212.253906 C 132.097656 212.253906 132.347656 190.574219 149.949219 190.574219 C 150.4375 190.574219 150.855469 190.535156 151.230469 190.46875 C 151.605469 190.535156 152.027344 190.574219 152.515625 190.574219 C 170.117188 190.574219 170.367188 212.253906 197.703125 212.253906 C 201.820312 212.253906 205.761719 211.5 209.402344 210.128906 C 224.722656 233.367188 240 254.429688 244.214844 260.894531 C 259.601562 284.507812 296.605469 276.492188 296.605469 247.117188 C 296.605469 199.503906 299.132812 164.644531 282.515625 125.066406 Z M 282.515625 125.066406 "/>
<path style=" stroke:none;fill-rule:nonzero;fill:rgb(7.45098%,12.54902%,15.686275%);fill-opacity:1;" d="M 273.042969 136.136719 C 273.042969 159.828125 253.835938 179.035156 230.144531 179.035156 C 206.449219 179.035156 187.246094 159.828125 187.246094 136.136719 C 187.246094 112.445312 206.449219 93.238281 230.144531 93.238281 C 253.835938 93.238281 273.042969 112.445312 273.042969 136.136719 Z M 69.488281 93.238281 C 45.796875 93.238281 26.589844 112.445312 26.589844 136.136719 C 26.589844 159.828125 45.796875 179.035156 69.488281 179.035156 C 93.179688 179.035156 112.386719 159.828125 112.386719 136.136719 C 112.386719 112.445312 93.179688 93.238281 69.488281 93.238281 Z M 69.488281 93.238281 "/>
<path style=" stroke:none;fill-rule:nonzero;fill:rgb(0%,69.411765%,100%);fill-opacity:1;" d="M 242.328125 157.917969 C 242.328125 164.214844 237.222656 169.324219 230.921875 169.324219 C 224.621094 169.324219 219.515625 164.214844 219.515625 157.917969 C 219.515625 151.617188 224.621094 146.511719 230.921875 146.511719 C 237.222656 146.511719 242.328125 151.617188 242.328125 157.917969 Z M 242.328125 157.917969 "/>
<path style=" stroke:none;fill-rule:nonzero;fill:rgb(100%,71.372549%,21.176471%);fill-opacity:1;" d="M 242.328125 115.199219 C 242.328125 121.5 237.222656 126.605469 230.921875 126.605469 C 224.621094 126.605469 219.515625 121.5 219.515625 115.199219 C 219.515625 108.898438 224.621094 103.792969 230.921875 103.792969 C 237.222656 103.792969 242.328125 108.898438 242.328125 115.199219 Z M 242.328125 115.199219 "/>
<path style=" stroke:none;fill-rule:nonzero;fill:rgb(100%,27.843137%,24.313725%);fill-opacity:1;" d="M 220.96875 136.558594 C 220.96875 142.859375 215.863281 147.964844 209.5625 147.964844 C 203.261719 147.964844 198.15625 142.859375 198.15625 136.558594 C 198.15625 130.257812 203.261719 125.152344 209.5625 125.152344 C 215.863281 125.152344 220.96875 130.257812 220.96875 136.558594 Z M 220.96875 136.558594 "/>
<path style=" stroke:none;fill-rule:nonzero;fill:rgb(0%,72.156863%,61.176471%);fill-opacity:1;" d="M 263.6875 136.558594 C 263.6875 142.859375 258.582031 147.964844 252.28125 147.964844 C 245.980469 147.964844 240.875 142.859375 240.875 136.558594 C 240.875 130.257812 245.980469 125.152344 252.28125 125.152344 C 258.582031 125.152344 263.6875 130.257812 263.6875 136.558594 Z M 263.6875 136.558594 "/>
<path style=" stroke:none;fill-rule:nonzero;fill:rgb(34.901961%,48.235294%,56.862745%);fill-opacity:1;" d="M 139.257812 156.140625 L 124.988281 156.140625 C 122.523438 156.140625 120.527344 154.140625 120.527344 151.675781 C 120.527344 149.210938 122.523438 147.214844 124.988281 147.214844 L 139.257812 147.214844 C 141.722656 147.214844 143.71875 149.210938 143.71875 151.675781 C 143.71875 154.140625 141.722656 156.140625 139.257812 156.140625 Z M 180.65625 151.675781 C 180.65625 149.210938 178.65625 147.214844 176.191406 147.214844 L 161.925781 147.214844 C 159.460938 147.214844 157.460938 149.210938 157.460938 151.675781 C 157.460938 154.140625 159.460938 156.140625 161.925781 156.140625 L 176.191406 156.140625 C 178.65625 156.140625 180.652344 154.140625 180.65625 151.675781 Z M 104.871094 159.191406 C 93.914062 159.191406 85.03125 168.074219 85.03125 179.035156 C 85.03125 189.992188 93.914062 198.875 104.871094 198.875 C 115.832031 198.875 124.714844 189.992188 124.714844 179.035156 C 124.714844 168.074219 115.832031 159.191406 104.871094 159.191406 Z M 193.484375 159.191406 C 182.523438 159.191406 173.640625 168.074219 173.640625 179.035156 C 173.640625 189.992188 182.523438 198.875 193.484375 198.875 C 204.441406 198.875 213.324219 189.992188 213.324219 179.035156 C 213.324219 168.074219 204.441406 159.191406 193.484375 159.191406 Z M 53.414062 125.851562 L 37.953125 125.851562 C 36.152344 125.851562 34.691406 127.828125 34.691406 130.265625 L 34.691406 141.113281 C 34.691406 143.550781 36.152344 145.527344 37.953125 145.527344 L 53.414062 145.527344 C 54.203125 145.527344 54.964844 145.136719 55.5625 144.433594 L 60.136719 139.007812 C 61.621094 137.25 61.621094 134.125 60.136719 132.371094 L 55.5625 126.945312 C 54.964844 126.238281 54.203125 125.851562 53.414062 125.851562 Z M 79.324219 120.734375 L 79.324219 105.273438 C 79.324219 103.472656 77.351562 102.011719 74.914062 102.011719 L 64.0625 102.011719 C 61.625 102.011719 59.648438 103.472656 59.648438 105.273438 L 59.648438 120.734375 C 59.648438 121.523438 60.039062 122.285156 60.742188 122.878906 L 66.167969 127.457031 C 67.925781 128.941406 71.050781 128.941406 72.808594 127.457031 L 78.230469 122.878906 C 78.9375 122.285156 79.324219 121.523438 79.324219 120.734375 Z M 85.5625 146.421875 L 101.023438 146.421875 C 102.824219 146.421875 104.28125 144.445312 104.28125 142.007812 L 104.28125 131.160156 C 104.28125 128.722656 102.824219 126.746094 101.023438 126.746094 L 85.5625 126.746094 C 84.773438 126.746094 84.007812 127.132812 83.414062 127.839844 L 78.835938 133.261719 C 77.351562 135.023438 77.351562 138.144531 78.835938 139.902344 L 83.414062 145.328125 C 84.007812 146.035156 84.773438 146.421875 85.5625 146.421875 Z M 59.648438 151.539062 L 59.648438 167 C 59.648438 168.800781 61.625 170.261719 64.0625 170.261719 L 74.914062 170.261719 C 77.351562 170.261719 79.324219 168.800781 79.324219 167 L 79.324219 151.539062 C 79.324219 150.75 78.9375 149.988281 78.234375 149.390625 L 72.808594 144.816406 C 71.050781 143.332031 67.925781 143.332031 66.167969 144.816406 L 60.742188 149.390625 C 60.039062 149.988281 59.648438 150.75 59.648438 151.539062 Z M 59.648438 151.539062 "/>
</g>
</svg>
